<svg id="Icon" xmlns="http://www.w3.org/2000/svg" viewBox="0 0 38 38">
  <defs>
    <style>
      .cls-1 {
        fill: #fff;
        stroke: #a3a1fb;
      }

      .cls-2 {
        fill: #a4a1fb;
      }

      .cls-3 {
        stroke: none;
      }

      .cls-4 {
        fill: none;
      }
    </style>
  </defs>
  <g id="Icon.BG" class="cls-1">
    <circle class="cls-3" cx="19" cy="19" r="19"/>
    <circle class="cls-4" cx="19" cy="19" r="18.5"/>
  </g>
  <path id="cart-icon" class="cls-2" d="M11.014,14a2,2,0,1,1,2,2A2,2,0,0,1,11.014,14Zm-10,0a2,2,0,1,1,2,2A2,2,0,0,1,1.014,14ZM0,11V9H12.261l1.427-5H2.014V2h-2V0h3a1,1,0,0,1,1,1V2h11a1.021,1.021,0,0,1,.961,1.275l-2,7a1,1,0,0,1-.962.725ZM1,8V7H5V8ZM2,6V5H6V6Z" transform="translate(11 11)"/>
</svg>
